<svg xmlns="http://www.w3.org/2000/svg" viewBox="0 0 320 180" fill="none">
  <defs>
    <linearGradient id="brand-bg" x1="0" y1="0" x2="320" y2="180" gradientUnits="userSpaceOnUse">
      <stop stop-color="#faf5f0"/>
      <stop offset="1" stop-color="#f3e8f0"/>
    </linearGradient>
    <linearGradient id="brand-accent" x1="0" y1="0" x2="1" y2="1">
      <stop stop-color="#e879f9"/>
      <stop offset="1" stop-color="#fb923c"/>
    </linearGradient>
    <pattern id="brand-dots" width="8" height="8" patternUnits="userSpaceOnUse">
      <circle cx="4" cy="4" r="0.8" fill="#e879f9" fill-opacity="0.15"/>
    </pattern>
  </defs>
  <rect width="320" height="180" rx="12" fill="url(#brand-bg)"/>
  <rect x="16" y="16" width="288" height="148" rx="10" fill="url(#brand-dots)"/>
  <rect x="32" y="36" width="72" height="72" rx="8" fill="#fff" stroke="url(#brand-accent)" stroke-width="2"/>
  <circle cx="68" cy="58" r="18" stroke="#e879f9" stroke-width="2.5" fill="none"/>
  <path d="M56 72c6-10 24-10 24 0" stroke="#fb923c" stroke-width="2" stroke-linecap="round"/>
  <rect x="56" y="48" width="6" height="6" rx="1" fill="#e879f9"/>
  <rect x="74" y="48" width="6" height="6" rx="1" fill="#e879f9"/>
  <rect x="116" y="36" width="88" height="40" rx="6" fill="#fff" fill-opacity="0.9" stroke="#f9a8d4" stroke-width="1"/>
  <text x="128" y="54" fill="#c026d3" font-family="ui-monospace,monospace" font-size="9" font-weight="700">Aa</text>
  <text x="128" y="68" fill="#9ca3af" font-family="system-ui,sans-serif" font-size="7" letter-spacing="0.1em">TYPOGRAPHY</text>
  <rect x="116" y="84" width="40" height="24" rx="4" fill="#fde8d8"/>
  <rect x="164" y="84" width="40" height="24" rx="4" fill="#f9a8d4" fill-opacity="0.5"/>
  <rect x="212" y="84" width="40" height="24" rx="4" fill="#9cb89a" fill-opacity="0.55"/>
  <rect x="116" y="116" width="136" height="32" rx="6" fill="#fff" stroke="#e879f9" stroke-opacity="0.4" stroke-width="1"/>
  <rect x="128" y="126" width="48" height="12" rx="3" fill="url(#brand-accent)" opacity="0.7"/>
  <rect x="184" y="128" width="56" height="8" rx="2" fill="#d1d5db"/>
  <path d="M228 48 L252 36 L276 48 L276 72 L252 84 L228 72 Z" fill="#9cb89a" fill-opacity="0.25" stroke="#9cb89a" stroke-width="1.5"/>
  <text x="244" y="62" fill="#5a7a58" font-family="ui-monospace,monospace" font-size="10" font-weight="700">2b</text>
  <text x="28" y="22" fill="#a855b8" font-family="ui-monospace,monospace" font-size="8" letter-spacing="0.16em">BRAND · IDENTITY</text>
</svg>
