<svg xmlns="http://www.w3.org/2000/svg" viewBox="0 0 320 180" fill="none">
  <defs>
    <linearGradient id="tech-bg" x1="0" y1="0" x2="320" y2="180" gradientUnits="userSpaceOnUse">
      <stop stop-color="#f5f0e8"/>
      <stop offset="1" stop-color="#e8efe6"/>
    </linearGradient>
    <linearGradient id="tech-panel" x1="40" y1="32" x2="280" y2="148" gradientUnits="userSpaceOnUse">
      <stop stop-color="#ffffff" stop-opacity="0.95"/>
      <stop offset="1" stop-color="#f0f4f0"/>
    </linearGradient>
    <pattern id="tech-grid" width="12" height="12" patternUnits="userSpaceOnUse">
      <path d="M12 0H0V12" stroke="#9cb89a" stroke-opacity="0.18" stroke-width="0.5"/>
    </pattern>
  </defs>
  <rect width="320" height="180" rx="12" fill="url(#tech-bg)"/>
  <rect x="16" y="16" width="288" height="148" rx="10" fill="url(#tech-grid)" opacity="0.6"/>
  <rect x="28" y="28" width="264" height="124" rx="8" fill="url(#tech-panel)" stroke="#9cb89a" stroke-opacity="0.35" stroke-width="1"/>
  <rect x="44" y="44" width="88" height="56" rx="6" fill="#0f172a" fill-opacity="0.04" stroke="#22d3ee" stroke-width="1.5"/>
  <rect x="52" y="52" width="32" height="4" rx="2" fill="#22d3ee" opacity="0.85"/>
  <rect x="52" y="62" width="56" height="3" rx="1.5" fill="#9cb89a" opacity="0.5"/>
  <rect x="52" y="70" width="44" height="3" rx="1.5" fill="#cbd5e1" opacity="0.6"/>
  <rect x="52" y="82" width="24" height="10" rx="3" fill="#22d3ee" opacity="0.25"/>
  <circle cx="148" cy="72" r="28" stroke="#22d3ee" stroke-width="2" fill="none" opacity="0.7"/>
  <path d="M148 56v32M132 72h32" stroke="#22d3ee" stroke-width="2" stroke-linecap="round" opacity="0.5"/>
  <circle cx="148" cy="72" r="6" fill="#22d3ee"/>
  <rect x="188" y="44" width="88" height="56" rx="6" fill="#0f172a" fill-opacity="0.03" stroke="#3b82f6" stroke-width="1.2" stroke-opacity="0.6"/>
  <path d="M200 88 L216 60 L232 76 L248 52 L264 68" stroke="#3b82f6" stroke-width="2" fill="none" stroke-linecap="round" stroke-linejoin="round"/>
  <circle cx="216" cy="60" r="3" fill="#22d3ee"/>
  <circle cx="248" cy="52" r="3" fill="#3b82f6"/>
  <rect x="44" y="112" width="232" height="28" rx="5" fill="#9cb89a" fill-opacity="0.12"/>
  <rect x="52" y="120" width="48" height="12" rx="3" fill="#22d3ee" opacity="0.35"/>
  <rect x="108" y="120" width="36" height="12" rx="3" fill="#9cb89a" opacity="0.4"/>
  <rect x="152" y="120" width="56" height="12" rx="3" fill="#3b82f6" opacity="0.25"/>
  <text x="28" y="22" fill="#5a7a58" font-family="ui-monospace,monospace" font-size="8" letter-spacing="0.16em">TECH À SOFTWARE</text>
</svg>
