<svg xmlns="http://www.w3.org/2000/svg" viewBox="0 0 320 180" fill="none">
  <rect width="320" height="180" rx="12" fill="#0e0a14"/>
  <circle cx="160" cy="72" r="44" stroke="#e879f9" stroke-width="2" opacity="0.45"/>
  <circle cx="160" cy="72" r="28" stroke="#a855f7" stroke-width="2" opacity="0.65"/>
  <circle cx="160" cy="72" r="12" fill="#e879f9" opacity="0.9"/>
  <path d="M160 28 L160 44 M160 100 L160 116 M116 72 L100 72 M204 72 L220 72" stroke="#e879f9" stroke-width="2" stroke-linecap="round" opacity="0.5"/>
  <path d="M132 44 L142 54 M188 44 L178 54 M132 100 L142 90 M188 100 L178 90" stroke="#c084fc" stroke-width="1.5" stroke-linecap="round" opacity="0.4"/>
  <rect x="48" y="130" width="64" height="28" rx="6" fill="#1a1028" stroke="#e879f9" stroke-width="1.2" opacity="0.7"/>
  <rect x="128" y="130" width="64" height="28" rx="6" fill="#1a1028" stroke="#a855f7" stroke-width="1.2" opacity="0.7"/>
  <rect x="208" y="130" width="64" height="28" rx="6" fill="#1a1028" stroke="#e879f9" stroke-width="1.2" opacity="0.7"/>
  <circle cx="80" cy="144" r="4" fill="#e879f9"/>
  <circle cx="160" cy="144" r="4" fill="#a855f7"/>
  <circle cx="240" cy="144" r="4" fill="#e879f9"/>
</svg>
