<svg xmlns="http://www.w3.org/2000/svg" viewBox="0 0 320 180" fill="none">
  <rect width="320" height="180" rx="12" fill="#0a0a0a"/>
  <circle cx="160" cy="90" r="48" fill="#171717" stroke="#e5e5e5" stroke-width="2"/>
  <path d="M160 54 C140 54 128 68 128 84 C128 96 134 106 144 110 C142 112 138 118 138 124 C138 124 140 126 148 122 C152 124 156 124 160 124 C164 124 168 124 172 122 C180 126 182 124 182 124 C182 118 178 112 176 110 C186 106 192 96 192 84 C192 68 180 54 160 54 Z" fill="#e5e5e5" opacity="0.85"/>
</svg>
